<svg xmlns="http://www.w3.org/2000/svg" width="21" height="21" viewBox="0 0 21 21"><g><g><path fill="#2b75b2" d="M19.194 21.003H1.606c-.885 0-1.602-.657-1.602-1.551V1.616A1.61 1.61 0 0 1 1.606-.002h17.588a1.61 1.61 0 0 1 1.602 1.618v17.836c0 .894-.717 1.55-1.602 1.55zM8.864 4.05c-.95 0-1.87.154-2.49.46a2.923 2.923 0 0 0-1.3 1.334c-.231.487-.347 1.079-.347 2.067v.938H3.172v2.46h1.555v8.167h3.325V11.31h2.074l.574-2.46H8.052v-.882c0-.597.108-1.001.323-1.211.215-.21.641-.336 1.136-.336.503 0 .906.237 1.414.536l.606-2.313c-.933-.266-1.694-.592-2.668-.592z"/></g></g></svg>