<svg xmlns="http://www.w3.org/2000/svg" width="24" height="21" viewBox="0 0 24 21"><g><g><path fill="#dd4070" d="M20.344 5.107v3.61H18.88v-3.61h-3.656V3.631h3.656V.021h1.463v3.61H24v1.476zM10.23 1.452c1.298.726 2.058 1.906 2.058 3.449 0 1.296-.79 2.317-1.811 3.11-.996.772-1.185 1.096-1.185 1.754 0 .56 1.067 1.515 1.624 1.907 1.63 1.146 2.113 2.21 2.113 3.985 0 2.215-2.113 4.689-6.02 4.689-3.427 0-6.41-1.66-6.41-3.874 0-2.249 2.73-4.419 6.156-4.419.374 0 .716-.015 1.07-.015-.47-.453-.84-1.018-.84-1.703 0-.406.131-.814.313-1.162-.186.013-.376-.017-.572-.017-2.815 0-4.7-2.059-4.7-4.524 0-2.413 2.603-4.633 5.37-4.633h6.172l-1.381 1.453zM7.41 12.627c-2.369-.025-4.491 1.435-4.491 3.19 0 1.789 1.711 3.097 4.08 3.097 3.33 0 4.49-1.217 4.49-3.006 0-.216-.026-.427-.075-.633-.26-1.013-1.182-1.514-2.469-2.403a5.178 5.178 0 0 0-1.535-.245zm2.662-7.699C9.796 2.855 8.216 1.19 6.626 1.142c-1.59-.047-2.656 1.54-2.381 3.616.274 2.074 1.785 3.795 3.375 3.841 1.59.048 2.725-1.595 2.45-3.67z"/></g></g></svg>