<svg xmlns="http://www.w3.org/2000/svg" width="24" height="21" viewBox="0 0 24 21"><g><g><path fill="#414344" d="M20.344 5.107v3.61H18.88v-3.61h-3.656V3.63h3.656V.021h1.463v3.61H24v1.476zM10.23 1.45c1.298.727 2.058 1.907 2.058 3.45 0 1.296-.79 2.317-1.811 3.11-.996.772-1.185 1.096-1.185 1.753 0 .56 1.067 1.516 1.624 1.908 1.63 1.146 2.113 2.21 2.113 3.985 0 2.215-2.113 4.689-6.02 4.689-3.427 0-6.41-1.66-6.41-3.874 0-2.249 2.73-4.42 6.156-4.42.374 0 .716-.014 1.07-.014-.469-.454-.84-1.018-.84-1.703 0-.406.131-.815.313-1.162-.186.013-.376-.017-.572-.017-2.815 0-4.7-2.059-4.7-4.524 0-2.413 2.604-4.633 5.37-4.633h6.172L12.188 1.45zM7.41 12.627c-2.369-.025-4.49 1.435-4.49 3.189 0 1.79 1.71 3.098 4.079 3.098 3.33 0 4.49-1.217 4.49-3.006 0-.216-.026-.428-.075-.633-.26-1.013-1.182-1.514-2.469-2.403a5.188 5.188 0 0 0-1.535-.245zm2.662-7.699c-.275-2.074-1.855-3.74-3.445-3.786-1.59-.047-2.656 1.54-2.381 3.615C4.519 6.832 6.03 8.553 7.621 8.6c1.588.048 2.724-1.595 2.45-3.67z"/></g></g></svg>