<svg xmlns="http://www.w3.org/2000/svg" width="22" height="21" viewBox="0 0 22 21"><g><g><path fill="#26658e" d="M18.55 21H2.95c-1.436 0-2.6-1.175-2.6-2.625V2.625C.35 1.175 1.514 0 2.95 0h15.6c1.436 0 2.6 1.175 2.6 2.625v15.75c0 1.45-1.164 2.625-2.6 2.625zm-7.8-14.569a4.025 4.025 0 0 0-3.655 2.363h-.003l-.018.045a4.081 4.081 0 0 0-.105.264c-.015.042-.032.084-.046.127-.03.091-.054.185-.077.279-.011.044-.024.087-.034.131-.021.1-.036.2-.05.302-.005.041-.014.081-.018.123a4.137 4.137 0 0 0-.024.435c0 2.247 1.804 4.069 4.03 4.069s4.03-1.822 4.03-4.069c0-.147-.009-.292-.024-.435-.004-.042-.013-.082-.018-.123a4.078 4.078 0 0 0-.05-.302c-.01-.044-.023-.087-.034-.131a4.02 4.02 0 0 0-.077-.279c-.014-.043-.03-.085-.046-.127a4.076 4.076 0 0 0-.105-.264c-.006-.015-.01-.03-.018-.045h-.003A4.026 4.026 0 0 0 10.75 6.43zm8.06-3.018c0-.58-.466-1.05-1.04-1.05h-2.08c-.574 0-1.04.47-1.04 1.05v2.1c0 .58.466 1.05 1.04 1.05h2.08c.574 0 1.04-.47 1.04-1.05zm0 5.38h-1.917a6.49 6.49 0 0 1 .227 1.707c0 3.552-2.852 6.432-6.37 6.432-3.518 0-6.37-2.88-6.37-6.432 0-.59.08-1.162.227-1.706H2.69v8.794c0 .58.466 1.05 1.04 1.05h14.04c.574 0 1.04-.47 1.04-1.05z"/></g></g></svg>