<svg xmlns="http://www.w3.org/2000/svg" width="22" height="21" viewBox="0 0 22 21"><g><g><path fill="#414344" d="M18.55 21H2.95c-1.436 0-2.6-1.175-2.6-2.625V2.625C.35 1.175 1.514 0 2.95 0h15.6c1.436 0 2.6 1.175 2.6 2.625v15.75c0 1.45-1.164 2.625-2.6 2.625zm-7.8-14.568a4.025 4.025 0 0 0-3.655 2.362h-.003l-.018.045a4.154 4.154 0 0 0-.105.263c-.015.043-.032.085-.046.128-.03.091-.054.185-.077.279-.011.044-.024.087-.034.131-.021.1-.036.2-.05.302-.005.041-.014.081-.018.123a4.139 4.139 0 0 0-.024.435c0 2.247 1.804 4.069 4.03 4.069s4.03-1.822 4.03-4.069c0-.147-.009-.292-.024-.435-.004-.042-.013-.082-.018-.123a4.078 4.078 0 0 0-.05-.302c-.01-.044-.023-.087-.034-.131a4.07 4.07 0 0 0-.077-.279c-.014-.043-.03-.085-.046-.128a4.148 4.148 0 0 0-.105-.263c-.006-.015-.01-.03-.017-.045h-.004a4.025 4.025 0 0 0-3.655-2.362zm8.06-3.02c0-.58-.465-1.05-1.04-1.05h-2.08c-.574 0-1.04.47-1.04 1.05v2.1c0 .58.466 1.05 1.04 1.05h2.08c.575 0 1.04-.47 1.04-1.05zm0 5.382h-1.917a6.49 6.49 0 0 1 .227 1.706c0 3.552-2.852 6.431-6.37 6.431-3.518 0-6.37-2.879-6.37-6.43 0-.591.08-1.163.227-1.707H2.69v8.794c0 .58.466 1.05 1.04 1.05h14.04c.574 0 1.04-.47 1.04-1.05z"/></g></g></svg>