<svg xmlns="http://www.w3.org/2000/svg" width="23" height="23" viewBox="0 0 23 23"><g><g><path fill="#c7c9ce" d="M21.674 1.327a4.524 4.524 0 0 0-6.404 0l-3.202 3.207a4.534 4.534 0 0 0-1.171 4.369l2.77-2.767.002.002 3.202-3.208a2.262 2.262 0 0 1 3.202 0 2.27 2.27 0 0 1 0 3.207l-3.202 3.207c-.037.038-.08.064-.12.098l-2.673 2.671a4.52 4.52 0 0 0 4.394-1.165l3.202-3.207a4.54 4.54 0 0 0 0-6.414zm-5.498 7.17l-.004-.004a1.15 1.15 0 0 0-.819-1.956c-.333 0-.63.144-.84.37L6.902 14.51c-.226.21-.37.507-.37.84a1.15 1.15 0 0 0 1.97.806l.003.003zm-10.02 5.142l2.755-2.753a4.518 4.518 0 0 0-4.38 1.168L1.33 15.262a4.54 4.54 0 0 0 0 6.413 4.524 4.524 0 0 0 6.404 0l3.202-3.207a4.535 4.535 0 0 0 1.168-4.382l-2.71 2.706c-.02.023-.036.05-.059.073l-3.202 3.207a2.262 2.262 0 0 1-3.202 0 2.27 2.27 0 0 1 0-3.207l3.202-3.207c.007-.007.016-.011.023-.019z"/></g></g></svg>