<svg xmlns="http://www.w3.org/2000/svg" width="18" height="22" viewBox="0 0 18 22"><g><g><path fill="#6d6e71" d="M15.464 21.6H2.563c-1.425 0-2.58-1.176-2.58-2.628V5.829c0-1.452 1.155-2.63 2.58-2.63h1.935V1.887h1.737C6.794 1.103 7.822.572 9.013.572s2.22.531 2.778 1.314h1.738V3.2h1.935c1.425 0 2.58 1.177 2.58 2.629v13.143c0 1.452-1.155 2.628-2.58 2.628zM12.239 3.2h-1.434c0-.726-.802-1.314-1.792-1.314S7.221 2.474 7.221 3.2H5.788v2.629h6.45zm4.515 2.629c0-.726-.578-1.314-1.29-1.314h-1.935v2.628H4.498V4.515H2.563c-.713 0-1.29.588-1.29 1.314v13.143c0 .725.577 1.314 1.29 1.314h12.9c.713 0 1.291-.589 1.291-1.314zm-3.225 11.828H4.498A.651.651 0 0 1 3.853 17c0-.363.289-.657.645-.657h9.03c.357 0 .646.294.646.657a.651.651 0 0 1-.645.657zm0-3.285H4.498a.651.651 0 0 1-.645-.657c0-.363.289-.658.645-.658h9.03c.357 0 .646.295.646.658a.651.651 0 0 1-.645.657zm0-3.286H4.498a.651.651 0 0 1-.645-.657c0-.363.289-.658.645-.658h9.03c.357 0 .646.295.646.658a.651.651 0 0 1-.645.657z"/></g></g></svg>