<svg xmlns="http://www.w3.org/2000/svg" width="18" height="17" viewBox="0 0 18 17"><g><g><path fill="#6d6e71" d="M16.923 14.492L12.097 11.2h-4.29v4.389c0 .605-.48 1.097-1.072 1.097H5.127a1.085 1.085 0 0 1-1.073-1.097V11.2c0-.036.007-.07.01-.105C2.21 10.733.838 9.408.838 7.36c0-2.424 1.92-3.84 4.29-3.84h6.97L16.923.23c.593 0 1.073.49 1.073 1.097v12.069c0 .605-.48 1.097-1.073 1.097zm-11.796.548c0 .303.24.549.536.549h.536a.543.543 0 0 0 .536-.549V11.2H5.127zm0-10.422c-1.101-.037-3.218.318-3.218 2.742s2.152 2.743 3.218 2.743h4.29V4.618zm6.97 4.345v-.09-.964-.549-2.742H10.49v5.485h1.608v-1.14zm4.826 3.06V1.326L13.17 4.069v6.583l3.753 2.743v-1.372z"/></g></g></svg>