<svg xmlns="http://www.w3.org/2000/svg" width="19" height="19" viewBox="0 0 19 19"><g><g><path fill="#6d6e71" d="M15.828 18.6H2.371c-1.239 0-2.243-1.017-2.243-2.272V2.694c0-1.255 1.019-2.38 2.257-2.38h13.547c1.239 0 2.257 1.031 2.257 2.286v13.714c0 1.255-1.122 2.286-2.36 2.286zm1.233-16a1.14 1.14 0 0 0-1.13-1.143H2.386c-.619 0-1.136.61-1.136 1.237v13.634c0 .627.502 1.136 1.122 1.136h13.457c.62 0 1.233-.522 1.233-1.15zm-3.387 10.286h-9.03a.568.568 0 0 1-.565-.571c0-.316.252-.572.564-.572h9.031c.312 0 .564.256.564.572a.568.568 0 0 1-.564.57zm0-3.429h-9.03a.568.568 0 0 1-.565-.571c0-.316.252-.572.564-.572h9.031c.312 0 .564.256.564.572a.568.568 0 0 1-.564.571zm0-3.428h-9.03a.568.568 0 0 1-.565-.572c0-.315.252-.571.564-.571h9.031c.312 0 .564.256.564.571a.568.568 0 0 1-.564.572z"/></g></g></svg>