<svg xmlns="http://www.w3.org/2000/svg" width="19" height="19" viewBox="0 0 19 19"><g><g><path fill="#6d6e71" d="M9.723 18.6C4.735 18.6.692 14.507.692 9.457c0-5.05 4.043-9.143 9.03-9.143 4.988 0 9.031 4.094 9.031 9.143 0 5.05-4.043 9.143-9.03 9.143zm6.544-4.669a8 8 0 0 0 1.336-3.902h-4.518a22.22 22.22 0 0 1-.283 3.09c1.222.175 2.385.448 3.465.812zM7.491 10.03c.03 1.006.12 1.996.29 2.946a21.92 21.92 0 0 1 1.942-.09c.659 0 1.305.034 1.94.09.17-.95.26-1.94.29-2.946zm4.463-1.143a20.197 20.197 0 0 0-.29-2.947c-.636.057-1.282.09-1.941.09-.66 0-1.306-.033-1.941-.09-.17.95-.26 1.941-.29 2.947zm3.536 6.03a18.54 18.54 0 0 0-2.909-.67 18.753 18.753 0 0 1-.92 2.959 7.893 7.893 0 0 0 3.83-2.289zM9.175 17.43c.181.013.363.028.548.028.185 0 .366-.015.547-.028.481-1.012.87-2.14 1.158-3.335-.561-.05-1.13-.08-1.705-.08-.576 0-1.145.03-1.706.08a17.23 17.23 0 0 0 1.158 3.335zm-1.39-.224a18.741 18.741 0 0 1-.92-2.96 18.54 18.54 0 0 0-2.91.671 7.893 7.893 0 0 0 3.83 2.289zm-1.141-4.086a22.238 22.238 0 0 1-.284-3.09H1.842a7.999 7.999 0 0 0 1.336 3.902 19.603 19.603 0 0 1 3.465-.812zM3.178 4.984a7.998 7.998 0 0 0-1.336 3.902H6.36c.029-1.062.117-2.1.283-3.09a19.603 19.603 0 0 1-3.465-.812zm.777-.986c.921.295 1.895.52 2.91.671.236-1.046.543-2.04.92-2.96A7.894 7.894 0 0 0 3.954 4zm6.315-2.513c-.181-.013-.362-.028-.547-.028-.185 0-.367.016-.548.028-.481 1.013-.87 2.14-1.158 3.336.561.05 1.13.079 1.706.079.575 0 1.144-.03 1.705-.08a17.244 17.244 0 0 0-1.158-3.335zm1.39.225c.377.919.684 1.913.921 2.96a18.571 18.571 0 0 0 2.91-.672 7.894 7.894 0 0 0-3.83-2.288zm1.142 4.086c.166.99.254 2.028.283 3.09h4.518a7.998 7.998 0 0 0-1.335-3.902c-1.081.364-2.244.636-3.466.812z"/></g></g></svg>