<svg xmlns="http://www.w3.org/2000/svg" width="25" height="21" viewBox="0 0 25 21"><g><g><path fill="#1faae2" d="M17 .658c1.963-.035 3.008.69 4.006 1.613.847-.073 1.948-.553 2.596-.888l.63-.35c-.37 1.016-.872 1.81-1.644 2.414-.171.134-.341.315-.556.4v.013c1.1-.011 2.007-.515 2.868-.788v.012c-.452.73-1.065 1.47-1.718 2.002l-.791.638c.014 1.182-.018 2.31-.235 3.302-1.266 5.773-4.62 9.692-9.927 11.371-1.906.603-4.987.85-7.17.3-1.084-.272-2.062-.58-2.98-.988-.51-.226-.982-.471-1.434-.75L.2 18.683c.493.015 1.069.153 1.62.063.498-.082.986-.06 1.446-.162 1.146-.256 2.164-.593 3.041-1.114.425-.252 1.07-.549 1.372-.913-.569.01-1.085-.124-1.508-.275-1.64-.588-2.593-1.668-3.214-3.29.497.055 1.928.186 2.262-.1-.625-.035-1.227-.403-1.656-.676-1.319-.837-2.394-2.242-2.386-4.403l.519.25c.331.142.668.218 1.063.3.167.035.5.135.692.063h-.024c-.256-.302-.671-.502-.928-.826C1.653 6.533.861 4.89 1.362 2.934a6.03 6.03 0 0 1 .544-1.338l.025.013c.098.209.318.362.457.537.432.544.965 1.033 1.508 1.464 1.85 1.469 3.517 2.371 6.194 3.04.679.17 1.464.299 2.275.3-.228-.673-.155-1.763.024-2.414.451-1.639 1.431-2.82 2.868-3.453a6.083 6.083 0 0 1 1.125-.35l.619-.075z"/></g></g></svg>