<svg xmlns="http://www.w3.org/2000/svg" width="25" height="21" viewBox="0 0 25 21"><g><g><path fill="#414344" d="M17 .657c1.963-.034 3.008.691 4.006 1.614.847-.073 1.948-.554 2.596-.888l.63-.35c-.37 1.016-.872 1.81-1.644 2.414-.171.134-.341.315-.556.4v.013c1.1-.012 2.007-.515 2.868-.788v.013c-.452.73-1.065 1.47-1.718 2.001l-.791.638c.014 1.181-.018 2.309-.235 3.302-1.266 5.773-4.62 9.692-9.927 11.371-1.906.603-4.987.85-7.17.3-1.083-.272-2.062-.58-2.98-.988a11.84 11.84 0 0 1-1.434-.75L.2 18.683c.493.015 1.069.153 1.62.063.498-.082.986-.06 1.446-.163 1.146-.255 2.164-.593 3.041-1.113.425-.252 1.07-.549 1.372-.913-.569.01-1.085-.124-1.508-.275-1.64-.588-2.593-1.668-3.214-3.29.497.055 1.928.186 2.262-.1-.625-.035-1.227-.403-1.656-.676-1.319-.837-2.394-2.242-2.386-4.403l.519.25c.331.142.668.218 1.063.3.167.035.5.135.692.063h-.024c-.256-.301-.671-.502-.928-.826C1.653 6.533.861 4.89 1.362 2.934a6.03 6.03 0 0 1 .544-1.338.468.468 0 0 0 .025.012c.098.21.318.363.457.538.432.544.965 1.033 1.508 1.464C5.747 5.079 7.413 5.98 10.09 6.65c.679.17 1.464.298 2.275.3-.228-.673-.155-1.763.024-2.414.451-1.639 1.431-2.82 2.869-3.453a6.06 6.06 0 0 1 1.124-.35l.619-.076z"/></g></g></svg>